<svg width="395" height="395" viewBox="0 0 395 395" fill="none" xmlns="http://www.w3.org/2000/svg">
<path d="M43.8889 120.694V256.476C43.8889 278.881 55.8815 283.731 55.8815 283.731L182.874 383.567C202.865 399.279 197.5 366.198 197.5 366.198V241.389L43.8889 120.694Z" fill="#662113"/>
<path d="M351.111 120.694V256.476C351.111 278.881 339.448 283.731 339.448 283.731C339.448 283.731 232.282 367.855 212.302 383.567C192.299 399.279 197.5 366.198 197.5 366.198V241.389L351.111 120.694Z" fill="#C1694F"/>
<path d="M211.643 5.4861C203.381 -1.20696 189.83 -1.20696 181.557 5.4861L50.0882 110.04C41.8151 116.733 41.8151 127.673 50.0882 134.355L182.007 240.193C190.28 246.875 203.831 246.875 212.104 240.193L344.912 133.433C353.185 126.751 353.185 115.812 344.912 109.119L211.643 5.4861Z" fill="#D99E82"/>
<path d="M197.5 392.257C191.443 392.257 186.528 386.968 186.528 380.429V238.591C186.528 232.052 191.443 226.763 197.5 226.763C203.568 226.763 208.472 232.052 208.472 238.591V380.429C208.472 386.968 203.568 392.257 197.5 392.257Z" fill="#D99E82"/>
<path d="M307.222 206.673C307.222 218.786 308.363 224.733 296.25 233.467L269.16 254.073C257.046 262.818 252.361 255.313 252.361 243.188V210.7C252.361 208.582 252.076 206.311 249.311 204.028C221.024 180.712 111.193 93.4724 91.1792 77.3651L141.926 37.0093C155.817 47.1696 259.91 127.552 303.459 161.84C305.62 163.552 307.222 165.439 307.222 167.502V206.673Z" fill="#99AAB5"/>
<path d="M303.448 161.84C259.91 127.552 155.817 47.1696 141.926 37.0093L123.042 52.0193L91.1792 77.3651C111.203 93.4724 221.024 180.712 249.311 204.028C250.644 205.046 251.601 206.478 252.032 208.099L306.158 164.583C305.396 163.54 304.482 162.615 303.448 161.84Z" fill="#CCD6DD"/>
<path d="M307.222 206.673V167.502C307.222 165.439 305.62 163.563 303.448 161.84C259.91 127.552 155.817 47.1696 141.926 37.0093L119.18 55.1025C156.409 84.3874 256.125 161.325 282.228 182.084C285.036 184.322 285.278 186.637 285.278 188.755V241.817L296.25 233.467C308.363 224.722 307.222 218.786 307.222 206.673Z" fill="#CCD6DD"/>
<path d="M303.448 161.84C259.91 127.552 155.817 47.1696 141.926 37.0093L119.18 55.1025C156.409 84.3874 256.125 161.325 282.228 182.084C282.633 182.402 282.886 182.731 283.182 183.05L306.158 164.583C305.396 163.54 304.482 162.615 303.448 161.84Z" fill="#E1E8ED"/>
</svg>
